<svg viewBox="85.75 157.258 312.893 99.605" width="312.893" height="99.605" xmlns="http://www.w3.org/2000/svg">
  <path d="M92.351 240.866v-66.2c0-.933.333-1.733 1-2.4.667-.667 1.5-1 2.5-1h19c15.333 0 23 6.8 23 20.4 0 5.667-1.267 10.117-3.8 13.35-2.533 3.233-5.967 5.383-10.3 6.45l14 26.3c.267.467.4.967.4 1.5 0 1.333-.683 2.567-2.05 3.7-1.367 1.133-2.817 1.7-4.35 1.7-1.733 0-3.133-1.033-4.2-3.1l-14.6-28.6h-10.1v27.9c0 1.067-.517 1.917-1.55 2.55-1.033.633-2.283.95-3.75.95-1.4 0-2.617-.317-3.65-.95s-1.55-1.483-1.55-2.55zm10.5-60.2v23.8h12c8.267 0 12.4-3.967 12.4-11.9s-4.133-11.9-12.4-11.9h-12zm41.095 44.6v-9.5c0-5.267 2.034-9.817 6.1-13.65 4.067-3.833 8.967-5.75 14.7-5.75 5.467 0 10.15 1.75 14.05 5.25 3.9 3.5 5.85 7.917 5.85 13.25 0 2-.233 3.617-.7 4.85-.466 1.233-1.2 2.1-2.2 2.6-1 .5-1.933.817-2.8.95-.866.133-2 .2-3.4.2h-21.1v2.3c0 3.333 1.2 5.983 3.6 7.95 2.4 1.967 5.534 2.95 9.4 2.95 2.734 0 5.317-.633 7.75-1.9 2.434-1.267 3.917-1.9 4.45-1.9 1.134 0 2.1.533 2.9 1.6.8 1.067 1.2 2.1 1.2 3.1 0 1.667-1.6 3.35-4.8 5.05-3.2 1.7-7.133 2.55-11.8 2.55-6.8 0-12.366-1.833-16.7-5.5-4.333-3.667-6.5-8.467-6.5-14.4zm10.5-11.5v3.2h16.6c1.467 0 2.45-.2 2.95-.6.5-.4.75-1.2.75-2.4 0-2.667-.966-4.933-2.9-6.8-1.933-1.867-4.333-2.8-7.2-2.8-2.8 0-5.2.883-7.2 2.65s-3 4.017-3 6.75zm35.696 18.2c0-5.333 2-9.05 6-11.15 4-2.1 9.8-3.15 17.4-3.15h4.4v-1.8c0-2.933-.817-5.467-2.45-7.6-1.633-2.133-4.117-3.2-7.45-3.2-2.867 0-5.383.5-7.55 1.5s-3.35 1.5-3.55 1.5c-1.133 0-2.05-.55-2.75-1.65a6.661 6.661 0 0 1-1.05-3.65c0-1.733 1.617-3.233 4.85-4.5 3.233-1.267 6.65-1.9 10.25-1.9 6.867 0 11.95 1.85 15.25 5.55 3.3 3.7 4.95 8.317 4.95 13.85v25.1c0 .933-.483 1.75-1.45 2.45-.967.7-2.183 1.05-3.65 1.05-1.333 0-2.467-.35-3.4-1.05-.933-.7-1.4-1.517-1.4-2.45v-3.5c-4.467 5.2-9.5 7.8-15.1 7.8-3.867 0-7.05-1.133-9.55-3.4-2.5-2.267-3.75-5.533-3.75-9.8zm10.6-1.3c0 2.133.6 3.75 1.8 4.85 1.2 1.1 2.767 1.65 4.7 1.65 2.533 0 4.95-1.067 7.25-3.2s3.45-4.4 3.45-6.8v-3.7h-2.5c-3 0-5.45.133-7.35.4-1.9.267-3.6.967-5.1 2.1-1.5 1.133-2.25 2.7-2.25 4.7zm39.296 10.2v-68.7c0-1 .483-1.817 1.45-2.45.967-.633 2.217-.95 3.75-.95 1.467 0 2.717.317 3.75.95s1.55 1.45 1.55 2.45v68.7c0 .867-.533 1.667-1.6 2.4-1.067.733-2.3 1.1-3.7 1.1-1.467 0-2.7-.367-3.7-1.1-1-.733-1.5-1.533-1.5-2.4z" white-space="pre" fill="#3ac955"/>
  <path fill="#3ac955" d="M262.54 157.258h136.103v99.605H262.54z"/>
  <path d="M274.345 240.863v-64.3c0-1.8.5-3.133 1.5-4s2.267-1.3 3.8-1.3c1.933 0 3.517.417 4.75 1.25s2.45 2.417 3.65 4.75l14 26.5 14.2-26.5c1.2-2.333 2.4-3.917 3.6-4.75 1.2-.833 2.767-1.25 4.7-1.25 1.533 0 2.8.433 3.8 1.3s1.5 2.2 1.5 4v64.3c0 1.067-.517 1.917-1.55 2.55-1.033.633-2.283.95-3.75.95-1.4 0-2.633-.317-3.7-.95-1.067-.633-1.6-1.483-1.6-2.55v-48l-13.4 24.8c-1 1.6-2.3 2.4-3.9 2.4s-2.8-.8-3.6-2.4l-13.4-25.4v48.6c0 1.067-.517 1.917-1.55 2.55-1.033.633-2.283.95-3.75.95-1.4 0-2.633-.317-3.7-.95-1.067-.633-1.6-1.483-1.6-2.55zm67.994-18.2v-29.1c0-7.733 2.033-13.383 6.1-16.95s9.5-5.35 16.3-5.35c6.8 0 12.25 1.783 16.35 5.35 4.1 3.567 6.15 9.217 6.15 16.95v29.1c0 7-1.7 12.3-5.1 15.9-3.4 3.6-8 5.667-13.8 6.2v7c0 1.067-.35 1.917-1.05 2.55-.7.633-1.55.95-2.55.95a3.54 3.54 0 0 1-2.45-.95c-.7-.633-1.05-1.483-1.05-2.55v-7c-5.8-.533-10.4-2.583-13.8-6.15-3.4-3.567-5.1-8.883-5.1-15.95zm10.6-29.1v29.1c0 7.067 2.767 11.167 8.3 12.3v-6.1c0-2.267 1.167-3.4 3.5-3.4 1 0 1.85.283 2.55.85.7.567 1.05 1.417 1.05 2.55v6c5.533-1.2 8.3-5.267 8.3-12.2v-29.1c0-4.333-1.033-7.567-3.1-9.7-2.067-2.133-5-3.2-8.8-3.2-7.867 0-11.8 4.3-11.8 12.9z" fill="#fff" white-space="pre"/>
</svg>
